<mxfile host="app.diagrams.net" modified="2023-04-14T01:56:36.920Z" agent="Mozilla/5.0 (Windows NT 10.0; Win64; x64; rv:109.0) Gecko/20100101 Firefox/111.0" etag="8rxwbOjEODWR7jq5o200" version="21.1.7" type="device">
  <diagram name="Página-1" id="--PFs3C-LNsf1QlrHgfZ">
    <mxGraphModel dx="838" dy="448" grid="1" gridSize="10" guides="1" tooltips="1" connect="1" arrows="1" fold="1" page="1" pageScale="1" pageWidth="827" pageHeight="1169" math="0" shadow="0">
      <root>
        <mxCell id="0" />
        <mxCell id="1" parent="0" />
        <mxCell id="8TRutvtICGxCqHpXNAIt-1" style="rounded=0;orthogonalLoop=1;jettySize=auto;html=1;exitX=0.5;exitY=1;exitDx=0;exitDy=0;entryX=0.5;entryY=0;entryDx=0;entryDy=0;endArrow=none;endFill=0;" edge="1" parent="1" source="8TRutvtICGxCqHpXNAIt-4" target="8TRutvtICGxCqHpXNAIt-75">
          <mxGeometry relative="1" as="geometry" />
        </mxCell>
        <mxCell id="8TRutvtICGxCqHpXNAIt-2" style="rounded=0;orthogonalLoop=1;jettySize=auto;html=1;exitX=0.5;exitY=1;exitDx=0;exitDy=0;entryX=0;entryY=0.5;entryDx=0;entryDy=0;endArrow=none;endFill=0;" edge="1" parent="1" source="8TRutvtICGxCqHpXNAIt-4" target="8TRutvtICGxCqHpXNAIt-6">
          <mxGeometry relative="1" as="geometry" />
        </mxCell>
        <mxCell id="8TRutvtICGxCqHpXNAIt-3" style="rounded=0;orthogonalLoop=1;jettySize=auto;html=1;exitX=0.5;exitY=1;exitDx=0;exitDy=0;entryX=0.5;entryY=0;entryDx=0;entryDy=0;endArrow=none;endFill=0;" edge="1" parent="1" source="8TRutvtICGxCqHpXNAIt-4" target="8TRutvtICGxCqHpXNAIt-80">
          <mxGeometry relative="1" as="geometry" />
        </mxCell>
        <mxCell id="8TRutvtICGxCqHpXNAIt-4" value="Usuários" style="whiteSpace=wrap;html=1;align=center;" vertex="1" parent="1">
          <mxGeometry x="170" y="390" width="120" height="40" as="geometry" />
        </mxCell>
        <mxCell id="8TRutvtICGxCqHpXNAIt-5" value="User_Id" style="ellipse;whiteSpace=wrap;html=1;align=center;fontStyle=4;" vertex="1" parent="1">
          <mxGeometry x="60" y="450" width="100" height="40" as="geometry" />
        </mxCell>
        <mxCell id="8TRutvtICGxCqHpXNAIt-6" value="Email" style="ellipse;whiteSpace=wrap;html=1;align=center;" vertex="1" parent="1">
          <mxGeometry x="300" y="450" width="100" height="40" as="geometry" />
        </mxCell>
        <mxCell id="8TRutvtICGxCqHpXNAIt-7" value="Senha" style="ellipse;whiteSpace=wrap;html=1;align=center;" vertex="1" parent="1">
          <mxGeometry x="240" y="500" width="100" height="40" as="geometry" />
        </mxCell>
        <mxCell id="8TRutvtICGxCqHpXNAIt-8" value="" style="endArrow=none;html=1;rounded=0;exitX=1;exitY=0.5;exitDx=0;exitDy=0;entryX=0.5;entryY=1;entryDx=0;entryDy=0;" edge="1" parent="1" source="8TRutvtICGxCqHpXNAIt-5" target="8TRutvtICGxCqHpXNAIt-4">
          <mxGeometry relative="1" as="geometry">
            <mxPoint x="350" y="370" as="sourcePoint" />
            <mxPoint x="510" y="370" as="targetPoint" />
          </mxGeometry>
        </mxCell>
        <mxCell id="8TRutvtICGxCqHpXNAIt-9" value="" style="endArrow=none;html=1;rounded=0;exitX=0.5;exitY=0;exitDx=0;exitDy=0;entryX=0.5;entryY=1;entryDx=0;entryDy=0;" edge="1" parent="1" source="8TRutvtICGxCqHpXNAIt-7" target="8TRutvtICGxCqHpXNAIt-4">
          <mxGeometry relative="1" as="geometry">
            <mxPoint x="680" y="290" as="sourcePoint" />
            <mxPoint x="840" y="290" as="targetPoint" />
          </mxGeometry>
        </mxCell>
        <mxCell id="8TRutvtICGxCqHpXNAIt-140" style="edgeStyle=none;shape=connector;rounded=0;orthogonalLoop=1;jettySize=auto;html=1;exitX=0.5;exitY=1;exitDx=0;exitDy=0;entryX=0.5;entryY=0;entryDx=0;entryDy=0;labelBackgroundColor=default;strokeColor=default;fontFamily=Helvetica;fontSize=11;fontColor=default;endArrow=none;endFill=0;" edge="1" parent="1" source="8TRutvtICGxCqHpXNAIt-10" target="8TRutvtICGxCqHpXNAIt-11">
          <mxGeometry relative="1" as="geometry" />
        </mxCell>
        <mxCell id="8TRutvtICGxCqHpXNAIt-141" style="edgeStyle=none;shape=connector;rounded=0;orthogonalLoop=1;jettySize=auto;html=1;exitX=0.5;exitY=1;exitDx=0;exitDy=0;entryX=0.5;entryY=0;entryDx=0;entryDy=0;labelBackgroundColor=default;strokeColor=default;fontFamily=Helvetica;fontSize=11;fontColor=default;endArrow=none;endFill=0;" edge="1" parent="1" target="8TRutvtICGxCqHpXNAIt-12">
          <mxGeometry relative="1" as="geometry">
            <mxPoint x="240" y="805" as="sourcePoint" />
          </mxGeometry>
        </mxCell>
        <mxCell id="8TRutvtICGxCqHpXNAIt-142" style="edgeStyle=none;shape=connector;rounded=0;orthogonalLoop=1;jettySize=auto;html=1;exitX=0.5;exitY=1;exitDx=0;exitDy=0;entryX=0.5;entryY=0;entryDx=0;entryDy=0;labelBackgroundColor=default;strokeColor=default;fontFamily=Helvetica;fontSize=11;fontColor=default;endArrow=none;endFill=0;" edge="1" parent="1" source="8TRutvtICGxCqHpXNAIt-10" target="8TRutvtICGxCqHpXNAIt-137">
          <mxGeometry relative="1" as="geometry" />
        </mxCell>
        <mxCell id="8TRutvtICGxCqHpXNAIt-143" style="edgeStyle=none;shape=connector;rounded=0;orthogonalLoop=1;jettySize=auto;html=1;exitX=0.5;exitY=1;exitDx=0;exitDy=0;entryX=1;entryY=0;entryDx=0;entryDy=0;labelBackgroundColor=default;strokeColor=default;fontFamily=Helvetica;fontSize=11;fontColor=default;endArrow=none;endFill=0;" edge="1" parent="1" source="8TRutvtICGxCqHpXNAIt-10" target="8TRutvtICGxCqHpXNAIt-13">
          <mxGeometry relative="1" as="geometry" />
        </mxCell>
        <mxCell id="8TRutvtICGxCqHpXNAIt-144" style="edgeStyle=none;shape=connector;rounded=0;orthogonalLoop=1;jettySize=auto;html=1;exitX=0.5;exitY=1;exitDx=0;exitDy=0;entryX=1;entryY=0;entryDx=0;entryDy=0;labelBackgroundColor=default;strokeColor=default;fontFamily=Helvetica;fontSize=11;fontColor=default;endArrow=none;endFill=0;" edge="1" parent="1" source="8TRutvtICGxCqHpXNAIt-10" target="8TRutvtICGxCqHpXNAIt-135">
          <mxGeometry relative="1" as="geometry" />
        </mxCell>
        <mxCell id="8TRutvtICGxCqHpXNAIt-145" style="edgeStyle=none;shape=connector;rounded=0;orthogonalLoop=1;jettySize=auto;html=1;exitX=0.5;exitY=1;exitDx=0;exitDy=0;entryX=0;entryY=0;entryDx=0;entryDy=0;labelBackgroundColor=default;strokeColor=default;fontFamily=Helvetica;fontSize=11;fontColor=default;endArrow=none;endFill=0;" edge="1" parent="1" source="8TRutvtICGxCqHpXNAIt-10" target="8TRutvtICGxCqHpXNAIt-136">
          <mxGeometry relative="1" as="geometry" />
        </mxCell>
        <mxCell id="8TRutvtICGxCqHpXNAIt-146" style="edgeStyle=none;shape=connector;rounded=0;orthogonalLoop=1;jettySize=auto;html=1;exitX=0.5;exitY=1;exitDx=0;exitDy=0;entryX=0;entryY=0;entryDx=0;entryDy=0;labelBackgroundColor=default;strokeColor=default;fontFamily=Helvetica;fontSize=11;fontColor=default;endArrow=none;endFill=0;" edge="1" parent="1" source="8TRutvtICGxCqHpXNAIt-10" target="8TRutvtICGxCqHpXNAIt-138">
          <mxGeometry relative="1" as="geometry" />
        </mxCell>
        <mxCell id="8TRutvtICGxCqHpXNAIt-10" value="Curso" style="whiteSpace=wrap;html=1;align=center;" vertex="1" parent="1">
          <mxGeometry x="170" y="765" width="120" height="40" as="geometry" />
        </mxCell>
        <mxCell id="8TRutvtICGxCqHpXNAIt-11" value="Curso_Id" style="ellipse;whiteSpace=wrap;html=1;align=center;fontStyle=4;" vertex="1" parent="1">
          <mxGeometry x="70" y="815" width="100" height="40" as="geometry" />
        </mxCell>
        <mxCell id="8TRutvtICGxCqHpXNAIt-12" value="&lt;div&gt;Foto_Curso&lt;/div&gt;" style="ellipse;whiteSpace=wrap;html=1;align=center;" vertex="1" parent="1">
          <mxGeometry x="290" y="815" width="100" height="40" as="geometry" />
        </mxCell>
        <mxCell id="8TRutvtICGxCqHpXNAIt-13" value="Curso_Name" style="ellipse;whiteSpace=wrap;html=1;align=center;" vertex="1" parent="1">
          <mxGeometry x="80" y="865" width="100" height="40" as="geometry" />
        </mxCell>
        <mxCell id="8TRutvtICGxCqHpXNAIt-225" style="edgeStyle=none;shape=connector;rounded=0;orthogonalLoop=1;jettySize=auto;html=1;exitX=0.5;exitY=1;exitDx=0;exitDy=0;entryX=1;entryY=0;entryDx=0;entryDy=0;labelBackgroundColor=default;strokeColor=default;fontFamily=Helvetica;fontSize=11;fontColor=default;endArrow=none;endFill=0;" edge="1" parent="1" source="8TRutvtICGxCqHpXNAIt-17" target="8TRutvtICGxCqHpXNAIt-18">
          <mxGeometry relative="1" as="geometry" />
        </mxCell>
        <mxCell id="8TRutvtICGxCqHpXNAIt-226" style="edgeStyle=none;shape=connector;rounded=0;orthogonalLoop=1;jettySize=auto;html=1;exitX=0.5;exitY=1;exitDx=0;exitDy=0;entryX=0;entryY=0;entryDx=0;entryDy=0;labelBackgroundColor=default;strokeColor=default;fontFamily=Helvetica;fontSize=11;fontColor=default;endArrow=none;endFill=0;" edge="1" parent="1" source="8TRutvtICGxCqHpXNAIt-17" target="8TRutvtICGxCqHpXNAIt-20">
          <mxGeometry relative="1" as="geometry" />
        </mxCell>
        <mxCell id="8TRutvtICGxCqHpXNAIt-227" style="edgeStyle=none;shape=connector;rounded=0;orthogonalLoop=1;jettySize=auto;html=1;exitX=0.5;exitY=1;exitDx=0;exitDy=0;entryX=1;entryY=0;entryDx=0;entryDy=0;labelBackgroundColor=default;strokeColor=default;fontFamily=Helvetica;fontSize=11;fontColor=default;endArrow=none;endFill=0;" edge="1" parent="1" source="8TRutvtICGxCqHpXNAIt-17" target="8TRutvtICGxCqHpXNAIt-19">
          <mxGeometry relative="1" as="geometry" />
        </mxCell>
        <mxCell id="8TRutvtICGxCqHpXNAIt-229" style="edgeStyle=none;shape=connector;rounded=0;orthogonalLoop=1;jettySize=auto;html=1;exitX=0.5;exitY=1;exitDx=0;exitDy=0;entryX=0;entryY=0;entryDx=0;entryDy=0;labelBackgroundColor=default;strokeColor=default;fontFamily=Helvetica;fontSize=11;fontColor=default;endArrow=none;endFill=0;" edge="1" parent="1" source="8TRutvtICGxCqHpXNAIt-17" target="8TRutvtICGxCqHpXNAIt-21">
          <mxGeometry relative="1" as="geometry" />
        </mxCell>
        <mxCell id="8TRutvtICGxCqHpXNAIt-17" value="Módulos" style="whiteSpace=wrap;html=1;align=center;" vertex="1" parent="1">
          <mxGeometry x="667" y="765" width="120" height="40" as="geometry" />
        </mxCell>
        <mxCell id="8TRutvtICGxCqHpXNAIt-18" value="Módulo_Id" style="ellipse;whiteSpace=wrap;html=1;align=center;fontStyle=4;" vertex="1" parent="1">
          <mxGeometry x="587" y="815" width="100" height="40" as="geometry" />
        </mxCell>
        <mxCell id="8TRutvtICGxCqHpXNAIt-19" value="Módulo_Name" style="ellipse;whiteSpace=wrap;html=1;align=center;" vertex="1" parent="1">
          <mxGeometry x="610" y="865" width="100" height="40" as="geometry" />
        </mxCell>
        <mxCell id="8TRutvtICGxCqHpXNAIt-20" value="Num_Ordem" style="ellipse;whiteSpace=wrap;html=1;align=center;" vertex="1" parent="1">
          <mxGeometry x="760" y="815" width="100" height="40" as="geometry" />
        </mxCell>
        <mxCell id="8TRutvtICGxCqHpXNAIt-21" value="Descrição" style="ellipse;whiteSpace=wrap;html=1;align=center;" vertex="1" parent="1">
          <mxGeometry x="740" y="865" width="100" height="40" as="geometry" />
        </mxCell>
        <mxCell id="8TRutvtICGxCqHpXNAIt-26" style="rounded=0;orthogonalLoop=1;jettySize=auto;html=1;exitX=0.5;exitY=0;exitDx=0;exitDy=0;entryX=0.5;entryY=1;entryDx=0;entryDy=0;endArrow=none;endFill=0;" edge="1" parent="1" source="8TRutvtICGxCqHpXNAIt-30" target="8TRutvtICGxCqHpXNAIt-33">
          <mxGeometry relative="1" as="geometry" />
        </mxCell>
        <mxCell id="8TRutvtICGxCqHpXNAIt-27" style="rounded=0;orthogonalLoop=1;jettySize=auto;html=1;exitX=0.5;exitY=0;exitDx=0;exitDy=0;entryX=0.5;entryY=1;entryDx=0;entryDy=0;endArrow=none;endFill=0;" edge="1" parent="1" source="8TRutvtICGxCqHpXNAIt-30" target="8TRutvtICGxCqHpXNAIt-76">
          <mxGeometry relative="1" as="geometry" />
        </mxCell>
        <mxCell id="8TRutvtICGxCqHpXNAIt-28" style="rounded=0;orthogonalLoop=1;jettySize=auto;html=1;exitX=0.5;exitY=0;exitDx=0;exitDy=0;entryX=0.5;entryY=1;entryDx=0;entryDy=0;endArrow=none;endFill=0;" edge="1" parent="1" source="8TRutvtICGxCqHpXNAIt-30" target="8TRutvtICGxCqHpXNAIt-35">
          <mxGeometry relative="1" as="geometry" />
        </mxCell>
        <mxCell id="8TRutvtICGxCqHpXNAIt-29" style="rounded=0;orthogonalLoop=1;jettySize=auto;html=1;exitX=0.5;exitY=0;exitDx=0;exitDy=0;entryX=0.5;entryY=1;entryDx=0;entryDy=0;endArrow=none;endFill=0;" edge="1" parent="1" source="8TRutvtICGxCqHpXNAIt-30" target="8TRutvtICGxCqHpXNAIt-40">
          <mxGeometry relative="1" as="geometry" />
        </mxCell>
        <mxCell id="8TRutvtICGxCqHpXNAIt-30" value="Publicações" style="whiteSpace=wrap;html=1;align=center;direction=west;" vertex="1" parent="1">
          <mxGeometry x="1177" y="390" width="120" height="40" as="geometry" />
        </mxCell>
        <mxCell id="8TRutvtICGxCqHpXNAIt-31" style="edgeStyle=none;rounded=0;orthogonalLoop=1;jettySize=auto;html=1;exitX=0.5;exitY=1;exitDx=0;exitDy=0;entryX=0.5;entryY=1;entryDx=0;entryDy=0;endArrow=none;endFill=0;" edge="1" parent="1" source="8TRutvtICGxCqHpXNAIt-32" target="8TRutvtICGxCqHpXNAIt-77">
          <mxGeometry relative="1" as="geometry" />
        </mxCell>
        <mxCell id="8TRutvtICGxCqHpXNAIt-32" value="Comentários&lt;span style=&quot;color: rgba(0, 0, 0, 0); font-family: monospace; font-size: 0px; text-align: start;&quot;&gt;%3CmxGraphModel%3E%3Croot%3E%3CmxCell%20id%3D%220%22%2F%3E%3CmxCell%20id%3D%221%22%20parent%3D%220%22%2F%3E%3CmxCell%20id%3D%222%22%20value%3D%22Sub_Cat%22%20style%3D%22whiteSpace%3Dwrap%3Bhtml%3D1%3Balign%3Dcenter%3B%22%20vertex%3D%221%22%20parent%3D%221%22%3E%3CmxGeometry%20x%3D%22460%22%20y%3D%22820%22%20width%3D%22120%22%20height%3D%2240%22%20as%3D%22geometry%22%2F%3E%3C%2FmxCell%3E%3C%2Froot%3E%3C%2FmxGraphModel%3E&lt;/span&gt;" style="whiteSpace=wrap;html=1;align=center;" vertex="1" parent="1">
          <mxGeometry x="1630" y="390" width="120" height="40" as="geometry" />
        </mxCell>
        <mxCell id="8TRutvtICGxCqHpXNAIt-33" value="Pub_Id" style="ellipse;whiteSpace=wrap;html=1;align=center;fontStyle=4;direction=west;" vertex="1" parent="1">
          <mxGeometry x="1070" y="450" width="100" height="40" as="geometry" />
        </mxCell>
        <mxCell id="8TRutvtICGxCqHpXNAIt-34" value="Coment_Id" style="ellipse;whiteSpace=wrap;html=1;align=center;fontStyle=4;" vertex="1" parent="1">
          <mxGeometry x="1560" y="440" width="100" height="40" as="geometry" />
        </mxCell>
        <mxCell id="8TRutvtICGxCqHpXNAIt-35" value="User_Id" style="ellipse;whiteSpace=wrap;html=1;align=center;direction=west;" vertex="1" parent="1">
          <mxGeometry x="1090" y="500" width="100" height="40" as="geometry" />
        </mxCell>
        <mxCell id="8TRutvtICGxCqHpXNAIt-36" value="img" style="ellipse;whiteSpace=wrap;html=1;align=center;direction=west;" vertex="1" parent="1">
          <mxGeometry x="1270" y="500" width="100" height="40" as="geometry" />
        </mxCell>
        <mxCell id="8TRutvtICGxCqHpXNAIt-37" value="Conteúdo" style="ellipse;whiteSpace=wrap;html=1;align=center;" vertex="1" parent="1">
          <mxGeometry x="1721" y="440" width="100" height="40" as="geometry" />
        </mxCell>
        <mxCell id="8TRutvtICGxCqHpXNAIt-38" value="Pub_Id" style="ellipse;whiteSpace=wrap;html=1;align=center;" vertex="1" parent="1">
          <mxGeometry x="1700" y="490" width="100" height="40" as="geometry" />
        </mxCell>
        <mxCell id="8TRutvtICGxCqHpXNAIt-39" value="User_Id" style="ellipse;whiteSpace=wrap;html=1;align=center;" vertex="1" parent="1">
          <mxGeometry x="1580" y="490" width="100" height="40" as="geometry" />
        </mxCell>
        <mxCell id="8TRutvtICGxCqHpXNAIt-40" value="Conteúdo" style="ellipse;whiteSpace=wrap;html=1;align=center;direction=west;" vertex="1" parent="1">
          <mxGeometry x="1177" y="540" width="100" height="40" as="geometry" />
        </mxCell>
        <mxCell id="8TRutvtICGxCqHpXNAIt-41" value="" style="endArrow=none;html=1;rounded=0;exitX=1;exitY=0;exitDx=0;exitDy=0;entryX=0.5;entryY=1;entryDx=0;entryDy=0;" edge="1" parent="1" source="8TRutvtICGxCqHpXNAIt-34" target="8TRutvtICGxCqHpXNAIt-32">
          <mxGeometry relative="1" as="geometry">
            <mxPoint x="1310" y="320" as="sourcePoint" />
            <mxPoint x="1470" y="320" as="targetPoint" />
          </mxGeometry>
        </mxCell>
        <mxCell id="8TRutvtICGxCqHpXNAIt-42" value="" style="endArrow=none;html=1;rounded=0;exitX=1;exitY=0;exitDx=0;exitDy=0;entryX=0.5;entryY=1;entryDx=0;entryDy=0;" edge="1" parent="1" source="8TRutvtICGxCqHpXNAIt-39" target="8TRutvtICGxCqHpXNAIt-32">
          <mxGeometry relative="1" as="geometry">
            <mxPoint x="1310" y="320" as="sourcePoint" />
            <mxPoint x="1470" y="320" as="targetPoint" />
          </mxGeometry>
        </mxCell>
        <mxCell id="8TRutvtICGxCqHpXNAIt-43" value="" style="endArrow=none;html=1;rounded=0;exitX=0;exitY=0;exitDx=0;exitDy=0;entryX=0.5;entryY=1;entryDx=0;entryDy=0;" edge="1" parent="1" source="8TRutvtICGxCqHpXNAIt-38" target="8TRutvtICGxCqHpXNAIt-32">
          <mxGeometry relative="1" as="geometry">
            <mxPoint x="1310" y="320" as="sourcePoint" />
            <mxPoint x="1470" y="320" as="targetPoint" />
          </mxGeometry>
        </mxCell>
        <mxCell id="8TRutvtICGxCqHpXNAIt-44" value="" style="endArrow=none;html=1;rounded=0;exitX=0;exitY=0;exitDx=0;exitDy=0;entryX=0.5;entryY=1;entryDx=0;entryDy=0;" edge="1" parent="1" source="8TRutvtICGxCqHpXNAIt-37" target="8TRutvtICGxCqHpXNAIt-32">
          <mxGeometry relative="1" as="geometry">
            <mxPoint x="1310" y="320" as="sourcePoint" />
            <mxPoint x="1470" y="320" as="targetPoint" />
          </mxGeometry>
        </mxCell>
        <mxCell id="8TRutvtICGxCqHpXNAIt-45" value="possui" style="shape=rhombus;perimeter=rhombusPerimeter;whiteSpace=wrap;html=1;align=center;" vertex="1" parent="1">
          <mxGeometry x="430" y="760" width="100" height="50" as="geometry" />
        </mxCell>
        <mxCell id="8TRutvtICGxCqHpXNAIt-46" value="" style="endArrow=none;html=1;rounded=0;entryX=1;entryY=0.5;entryDx=0;entryDy=0;exitX=0;exitY=0.5;exitDx=0;exitDy=0;" edge="1" parent="1" source="8TRutvtICGxCqHpXNAIt-45" target="8TRutvtICGxCqHpXNAIt-10">
          <mxGeometry relative="1" as="geometry">
            <mxPoint x="464" y="735" as="sourcePoint" />
            <mxPoint x="304" y="735" as="targetPoint" />
          </mxGeometry>
        </mxCell>
        <mxCell id="8TRutvtICGxCqHpXNAIt-47" value="1" style="resizable=0;html=1;align=right;verticalAlign=bottom;" connectable="0" vertex="1" parent="8TRutvtICGxCqHpXNAIt-46">
          <mxGeometry x="1" relative="1" as="geometry">
            <mxPoint x="20" as="offset" />
          </mxGeometry>
        </mxCell>
        <mxCell id="8TRutvtICGxCqHpXNAIt-48" value="" style="endArrow=none;html=1;rounded=0;exitX=1;exitY=0.5;exitDx=0;exitDy=0;entryX=0;entryY=0.5;entryDx=0;entryDy=0;" edge="1" parent="1" source="8TRutvtICGxCqHpXNAIt-45" target="8TRutvtICGxCqHpXNAIt-17">
          <mxGeometry relative="1" as="geometry">
            <mxPoint x="430" y="685" as="sourcePoint" />
            <mxPoint x="590" y="685" as="targetPoint" />
          </mxGeometry>
        </mxCell>
        <mxCell id="8TRutvtICGxCqHpXNAIt-49" value="N" style="resizable=0;html=1;align=right;verticalAlign=bottom;" connectable="0" vertex="1" parent="8TRutvtICGxCqHpXNAIt-48">
          <mxGeometry x="1" relative="1" as="geometry">
            <mxPoint x="-7" as="offset" />
          </mxGeometry>
        </mxCell>
        <mxCell id="8TRutvtICGxCqHpXNAIt-109" style="rounded=0;orthogonalLoop=1;jettySize=auto;html=1;exitX=1;exitY=0.5;exitDx=0;exitDy=0;entryX=1;entryY=0.5;entryDx=0;entryDy=0;endArrow=none;endFill=0;" edge="1" parent="1" source="8TRutvtICGxCqHpXNAIt-50" target="8TRutvtICGxCqHpXNAIt-98">
          <mxGeometry relative="1" as="geometry" />
        </mxCell>
        <mxCell id="8TRutvtICGxCqHpXNAIt-50" value="possui" style="shape=rhombus;perimeter=rhombusPerimeter;whiteSpace=wrap;html=1;align=center;" vertex="1" parent="1">
          <mxGeometry x="430" y="385" width="100" height="50" as="geometry" />
        </mxCell>
        <mxCell id="8TRutvtICGxCqHpXNAIt-51" value="" style="endArrow=none;html=1;rounded=0;entryX=1;entryY=0.5;entryDx=0;entryDy=0;" edge="1" parent="1" target="8TRutvtICGxCqHpXNAIt-4">
          <mxGeometry relative="1" as="geometry">
            <mxPoint x="430" y="410" as="sourcePoint" />
            <mxPoint x="440" y="420" as="targetPoint" />
          </mxGeometry>
        </mxCell>
        <mxCell id="8TRutvtICGxCqHpXNAIt-52" value="1" style="resizable=0;html=1;align=right;verticalAlign=bottom;" connectable="0" vertex="1" parent="8TRutvtICGxCqHpXNAIt-51">
          <mxGeometry x="1" relative="1" as="geometry">
            <mxPoint x="20" as="offset" />
          </mxGeometry>
        </mxCell>
        <mxCell id="8TRutvtICGxCqHpXNAIt-55" value="possui" style="shape=rhombus;perimeter=rhombusPerimeter;whiteSpace=wrap;html=1;align=center;" vertex="1" parent="1">
          <mxGeometry x="1420" y="385" width="100" height="50" as="geometry" />
        </mxCell>
        <mxCell id="8TRutvtICGxCqHpXNAIt-56" value="" style="endArrow=none;html=1;rounded=0;entryX=0;entryY=0.5;entryDx=0;entryDy=0;exitX=0;exitY=0.5;exitDx=0;exitDy=0;" edge="1" parent="1" source="8TRutvtICGxCqHpXNAIt-55" target="8TRutvtICGxCqHpXNAIt-30">
          <mxGeometry relative="1" as="geometry">
            <mxPoint x="1410" y="430" as="sourcePoint" />
            <mxPoint x="1250" y="430" as="targetPoint" />
          </mxGeometry>
        </mxCell>
        <mxCell id="8TRutvtICGxCqHpXNAIt-57" value="1" style="resizable=0;html=1;align=right;verticalAlign=bottom;" connectable="0" vertex="1" parent="8TRutvtICGxCqHpXNAIt-56">
          <mxGeometry x="1" relative="1" as="geometry">
            <mxPoint x="20" as="offset" />
          </mxGeometry>
        </mxCell>
        <mxCell id="8TRutvtICGxCqHpXNAIt-58" value="" style="endArrow=none;html=1;rounded=0;exitX=1;exitY=0.5;exitDx=0;exitDy=0;entryX=0;entryY=0.5;entryDx=0;entryDy=0;" edge="1" parent="1" source="8TRutvtICGxCqHpXNAIt-55" target="8TRutvtICGxCqHpXNAIt-32">
          <mxGeometry relative="1" as="geometry">
            <mxPoint x="1250" y="430" as="sourcePoint" />
            <mxPoint x="1410" y="430" as="targetPoint" />
          </mxGeometry>
        </mxCell>
        <mxCell id="8TRutvtICGxCqHpXNAIt-59" value="N" style="resizable=0;html=1;align=right;verticalAlign=bottom;" connectable="0" vertex="1" parent="8TRutvtICGxCqHpXNAIt-58">
          <mxGeometry x="1" relative="1" as="geometry">
            <mxPoint x="-10" as="offset" />
          </mxGeometry>
        </mxCell>
        <mxCell id="8TRutvtICGxCqHpXNAIt-60" style="edgeStyle=none;rounded=0;orthogonalLoop=1;jettySize=auto;html=1;exitX=0.5;exitY=1;exitDx=0;exitDy=0;entryX=0.5;entryY=1;entryDx=0;entryDy=0;endArrow=none;endFill=0;" edge="1" parent="1" source="8TRutvtICGxCqHpXNAIt-61" target="8TRutvtICGxCqHpXNAIt-78">
          <mxGeometry relative="1" as="geometry" />
        </mxCell>
        <mxCell id="8TRutvtICGxCqHpXNAIt-61" value="Respostas" style="whiteSpace=wrap;html=1;align=center;" vertex="1" parent="1">
          <mxGeometry x="2089" y="390" width="120" height="40" as="geometry" />
        </mxCell>
        <mxCell id="8TRutvtICGxCqHpXNAIt-62" value="Resp_Id" style="ellipse;whiteSpace=wrap;html=1;align=center;fontStyle=4;" vertex="1" parent="1">
          <mxGeometry x="2020" y="440" width="100" height="40" as="geometry" />
        </mxCell>
        <mxCell id="8TRutvtICGxCqHpXNAIt-63" value="Coment_Id" style="ellipse;whiteSpace=wrap;html=1;align=center;" vertex="1" parent="1">
          <mxGeometry x="2039" y="490" width="100" height="40" as="geometry" />
        </mxCell>
        <mxCell id="8TRutvtICGxCqHpXNAIt-64" value="User_Id" style="ellipse;whiteSpace=wrap;html=1;align=center;" vertex="1" parent="1">
          <mxGeometry x="2160" y="490" width="100" height="40" as="geometry" />
        </mxCell>
        <mxCell id="8TRutvtICGxCqHpXNAIt-65" value="Conteúdo" style="ellipse;whiteSpace=wrap;html=1;align=center;" vertex="1" parent="1">
          <mxGeometry x="2179" y="440" width="100" height="40" as="geometry" />
        </mxCell>
        <mxCell id="8TRutvtICGxCqHpXNAIt-66" value="" style="endArrow=none;html=1;rounded=0;exitX=1;exitY=0.5;exitDx=0;exitDy=0;entryX=0.5;entryY=1;entryDx=0;entryDy=0;" edge="1" parent="1" source="8TRutvtICGxCqHpXNAIt-62" target="8TRutvtICGxCqHpXNAIt-61">
          <mxGeometry relative="1" as="geometry">
            <mxPoint x="1469" y="320" as="sourcePoint" />
            <mxPoint x="1629" y="320" as="targetPoint" />
          </mxGeometry>
        </mxCell>
        <mxCell id="8TRutvtICGxCqHpXNAIt-67" value="" style="endArrow=none;html=1;rounded=0;exitX=0;exitY=0.5;exitDx=0;exitDy=0;entryX=0.5;entryY=1;entryDx=0;entryDy=0;" edge="1" parent="1" source="8TRutvtICGxCqHpXNAIt-65" target="8TRutvtICGxCqHpXNAIt-61">
          <mxGeometry relative="1" as="geometry">
            <mxPoint x="1469" y="320" as="sourcePoint" />
            <mxPoint x="1629" y="320" as="targetPoint" />
          </mxGeometry>
        </mxCell>
        <mxCell id="8TRutvtICGxCqHpXNAIt-68" value="" style="endArrow=none;html=1;rounded=0;exitX=1;exitY=0;exitDx=0;exitDy=0;entryX=0.5;entryY=1;entryDx=0;entryDy=0;" edge="1" parent="1" source="8TRutvtICGxCqHpXNAIt-63" target="8TRutvtICGxCqHpXNAIt-61">
          <mxGeometry relative="1" as="geometry">
            <mxPoint x="1469" y="320" as="sourcePoint" />
            <mxPoint x="2149" y="440" as="targetPoint" />
          </mxGeometry>
        </mxCell>
        <mxCell id="8TRutvtICGxCqHpXNAIt-69" value="" style="endArrow=none;html=1;rounded=0;exitX=0;exitY=0;exitDx=0;exitDy=0;entryX=0.5;entryY=1;entryDx=0;entryDy=0;" edge="1" parent="1" source="8TRutvtICGxCqHpXNAIt-64" target="8TRutvtICGxCqHpXNAIt-61">
          <mxGeometry relative="1" as="geometry">
            <mxPoint x="1469" y="320" as="sourcePoint" />
            <mxPoint x="1629" y="320" as="targetPoint" />
          </mxGeometry>
        </mxCell>
        <mxCell id="8TRutvtICGxCqHpXNAIt-70" value="" style="endArrow=none;html=1;rounded=0;exitX=1;exitY=0.5;exitDx=0;exitDy=0;" edge="1" parent="1" source="8TRutvtICGxCqHpXNAIt-32">
          <mxGeometry relative="1" as="geometry">
            <mxPoint x="2080" y="490" as="sourcePoint" />
            <mxPoint x="1750" y="410" as="targetPoint" />
            <Array as="points">
              <mxPoint x="1870" y="410" />
            </Array>
          </mxGeometry>
        </mxCell>
        <mxCell id="8TRutvtICGxCqHpXNAIt-71" value="1" style="resizable=0;html=1;align=right;verticalAlign=bottom;" connectable="0" vertex="1" parent="8TRutvtICGxCqHpXNAIt-70">
          <mxGeometry x="1" relative="1" as="geometry">
            <mxPoint x="20" as="offset" />
          </mxGeometry>
        </mxCell>
        <mxCell id="8TRutvtICGxCqHpXNAIt-72" value="possui" style="shape=rhombus;perimeter=rhombusPerimeter;whiteSpace=wrap;html=1;align=center;" vertex="1" parent="1">
          <mxGeometry x="1870" y="385" width="100" height="50" as="geometry" />
        </mxCell>
        <mxCell id="8TRutvtICGxCqHpXNAIt-73" value="" style="endArrow=none;html=1;rounded=0;exitX=1;exitY=0.5;exitDx=0;exitDy=0;entryX=0;entryY=0.5;entryDx=0;entryDy=0;" edge="1" parent="1" source="8TRutvtICGxCqHpXNAIt-72" target="8TRutvtICGxCqHpXNAIt-61">
          <mxGeometry relative="1" as="geometry">
            <mxPoint x="1960" y="290" as="sourcePoint" />
            <mxPoint x="2120" y="290" as="targetPoint" />
          </mxGeometry>
        </mxCell>
        <mxCell id="8TRutvtICGxCqHpXNAIt-74" value="N" style="resizable=0;html=1;align=right;verticalAlign=bottom;" connectable="0" vertex="1" parent="8TRutvtICGxCqHpXNAIt-73">
          <mxGeometry x="1" relative="1" as="geometry">
            <mxPoint x="-9" as="offset" />
          </mxGeometry>
        </mxCell>
        <mxCell id="8TRutvtICGxCqHpXNAIt-75" value="User_Name" style="ellipse;whiteSpace=wrap;html=1;align=center;" vertex="1" parent="1">
          <mxGeometry x="120" y="500" width="100" height="40" as="geometry" />
        </mxCell>
        <mxCell id="8TRutvtICGxCqHpXNAIt-76" value="Data/Horário" style="ellipse;whiteSpace=wrap;html=1;align=center;direction=west;" vertex="1" parent="1">
          <mxGeometry x="1290" y="450" width="100" height="40" as="geometry" />
        </mxCell>
        <mxCell id="8TRutvtICGxCqHpXNAIt-77" value="Data/Horário" style="ellipse;whiteSpace=wrap;html=1;align=center;direction=west;" vertex="1" parent="1">
          <mxGeometry x="1640" y="540" width="100" height="40" as="geometry" />
        </mxCell>
        <mxCell id="8TRutvtICGxCqHpXNAIt-78" value="Data/Horário" style="ellipse;whiteSpace=wrap;html=1;align=center;direction=west;" vertex="1" parent="1">
          <mxGeometry x="2099" y="540" width="100" height="40" as="geometry" />
        </mxCell>
        <mxCell id="8TRutvtICGxCqHpXNAIt-79" style="rounded=0;orthogonalLoop=1;jettySize=auto;html=1;exitX=0.5;exitY=1;exitDx=0;exitDy=0;entryX=0.5;entryY=0;entryDx=0;entryDy=0;endArrow=none;endFill=0;" edge="1" parent="1" source="8TRutvtICGxCqHpXNAIt-80" target="8TRutvtICGxCqHpXNAIt-10">
          <mxGeometry relative="1" as="geometry" />
        </mxCell>
        <mxCell id="8TRutvtICGxCqHpXNAIt-80" value="possui" style="shape=rhombus;perimeter=rhombusPerimeter;whiteSpace=wrap;html=1;align=center;" vertex="1" parent="1">
          <mxGeometry x="180" y="580" width="100" height="50" as="geometry" />
        </mxCell>
        <mxCell id="8TRutvtICGxCqHpXNAIt-94" style="rounded=0;orthogonalLoop=1;jettySize=auto;html=1;exitX=0.5;exitY=0;exitDx=0;exitDy=0;entryX=0.5;entryY=1;entryDx=0;entryDy=0;endArrow=none;endFill=0;" edge="1" parent="1" source="8TRutvtICGxCqHpXNAIt-98" target="8TRutvtICGxCqHpXNAIt-99">
          <mxGeometry relative="1" as="geometry" />
        </mxCell>
        <mxCell id="8TRutvtICGxCqHpXNAIt-95" style="rounded=0;orthogonalLoop=1;jettySize=auto;html=1;exitX=0.5;exitY=0;exitDx=0;exitDy=0;entryX=0.5;entryY=1;entryDx=0;entryDy=0;endArrow=none;endFill=0;" edge="1" parent="1" source="8TRutvtICGxCqHpXNAIt-98" target="8TRutvtICGxCqHpXNAIt-107">
          <mxGeometry relative="1" as="geometry" />
        </mxCell>
        <mxCell id="8TRutvtICGxCqHpXNAIt-97" style="rounded=0;orthogonalLoop=1;jettySize=auto;html=1;exitX=0.5;exitY=0;exitDx=0;exitDy=0;entryX=0.5;entryY=1;entryDx=0;entryDy=0;endArrow=none;endFill=0;" edge="1" parent="1" source="8TRutvtICGxCqHpXNAIt-98" target="8TRutvtICGxCqHpXNAIt-102">
          <mxGeometry relative="1" as="geometry" />
        </mxCell>
        <mxCell id="8TRutvtICGxCqHpXNAIt-110" style="rounded=0;orthogonalLoop=1;jettySize=auto;html=1;exitX=0;exitY=0.5;exitDx=0;exitDy=0;entryX=0;entryY=0.5;entryDx=0;entryDy=0;endArrow=none;endFill=0;" edge="1" parent="1" source="8TRutvtICGxCqHpXNAIt-98" target="8TRutvtICGxCqHpXNAIt-104">
          <mxGeometry relative="1" as="geometry" />
        </mxCell>
        <mxCell id="8TRutvtICGxCqHpXNAIt-127" style="edgeStyle=none;shape=connector;rounded=0;orthogonalLoop=1;jettySize=auto;html=1;exitX=0.5;exitY=0;exitDx=0;exitDy=0;entryX=0;entryY=1;entryDx=0;entryDy=0;labelBackgroundColor=default;strokeColor=default;fontFamily=Helvetica;fontSize=11;fontColor=default;endArrow=none;endFill=0;" edge="1" parent="1" source="8TRutvtICGxCqHpXNAIt-98" target="8TRutvtICGxCqHpXNAIt-100">
          <mxGeometry relative="1" as="geometry" />
        </mxCell>
        <mxCell id="8TRutvtICGxCqHpXNAIt-128" style="edgeStyle=none;shape=connector;rounded=0;orthogonalLoop=1;jettySize=auto;html=1;exitX=0.5;exitY=0;exitDx=0;exitDy=0;entryX=0;entryY=1;entryDx=0;entryDy=0;labelBackgroundColor=default;strokeColor=default;fontFamily=Helvetica;fontSize=11;fontColor=default;endArrow=none;endFill=0;" edge="1" parent="1" source="8TRutvtICGxCqHpXNAIt-98" target="8TRutvtICGxCqHpXNAIt-119">
          <mxGeometry relative="1" as="geometry" />
        </mxCell>
        <mxCell id="8TRutvtICGxCqHpXNAIt-129" style="edgeStyle=none;shape=connector;rounded=0;orthogonalLoop=1;jettySize=auto;html=1;exitX=0.5;exitY=0;exitDx=0;exitDy=0;entryX=0;entryY=1;entryDx=0;entryDy=0;labelBackgroundColor=default;strokeColor=default;fontFamily=Helvetica;fontSize=11;fontColor=default;endArrow=none;endFill=0;" edge="1" parent="1" source="8TRutvtICGxCqHpXNAIt-98" target="8TRutvtICGxCqHpXNAIt-121">
          <mxGeometry relative="1" as="geometry" />
        </mxCell>
        <mxCell id="8TRutvtICGxCqHpXNAIt-130" style="edgeStyle=none;shape=connector;rounded=0;orthogonalLoop=1;jettySize=auto;html=1;exitX=0.5;exitY=0;exitDx=0;exitDy=0;entryX=0;entryY=1;entryDx=0;entryDy=0;labelBackgroundColor=default;strokeColor=default;fontFamily=Helvetica;fontSize=11;fontColor=default;endArrow=none;endFill=0;" edge="1" parent="1" source="8TRutvtICGxCqHpXNAIt-98" target="8TRutvtICGxCqHpXNAIt-126">
          <mxGeometry relative="1" as="geometry" />
        </mxCell>
        <mxCell id="8TRutvtICGxCqHpXNAIt-131" style="edgeStyle=none;shape=connector;rounded=0;orthogonalLoop=1;jettySize=auto;html=1;exitX=0.5;exitY=0;exitDx=0;exitDy=0;entryX=1;entryY=1;entryDx=0;entryDy=0;labelBackgroundColor=default;strokeColor=default;fontFamily=Helvetica;fontSize=11;fontColor=default;endArrow=none;endFill=0;" edge="1" parent="1" source="8TRutvtICGxCqHpXNAIt-98" target="8TRutvtICGxCqHpXNAIt-101">
          <mxGeometry relative="1" as="geometry" />
        </mxCell>
        <mxCell id="8TRutvtICGxCqHpXNAIt-132" style="edgeStyle=none;shape=connector;rounded=0;orthogonalLoop=1;jettySize=auto;html=1;exitX=0.5;exitY=0;exitDx=0;exitDy=0;entryX=1;entryY=1;entryDx=0;entryDy=0;labelBackgroundColor=default;strokeColor=default;fontFamily=Helvetica;fontSize=11;fontColor=default;endArrow=none;endFill=0;" edge="1" parent="1" source="8TRutvtICGxCqHpXNAIt-98" target="8TRutvtICGxCqHpXNAIt-120">
          <mxGeometry relative="1" as="geometry" />
        </mxCell>
        <mxCell id="8TRutvtICGxCqHpXNAIt-133" style="edgeStyle=none;shape=connector;rounded=0;orthogonalLoop=1;jettySize=auto;html=1;exitX=0.5;exitY=0;exitDx=0;exitDy=0;entryX=1;entryY=1;entryDx=0;entryDy=0;labelBackgroundColor=default;strokeColor=default;fontFamily=Helvetica;fontSize=11;fontColor=default;endArrow=none;endFill=0;" edge="1" parent="1" source="8TRutvtICGxCqHpXNAIt-98" target="8TRutvtICGxCqHpXNAIt-123">
          <mxGeometry relative="1" as="geometry" />
        </mxCell>
        <mxCell id="8TRutvtICGxCqHpXNAIt-134" style="edgeStyle=none;shape=connector;rounded=0;orthogonalLoop=1;jettySize=auto;html=1;exitX=0.5;exitY=0;exitDx=0;exitDy=0;entryX=0.786;entryY=1;entryDx=0;entryDy=0;entryPerimeter=0;labelBackgroundColor=default;strokeColor=default;fontFamily=Helvetica;fontSize=11;fontColor=default;endArrow=none;endFill=0;" edge="1" parent="1" source="8TRutvtICGxCqHpXNAIt-98" target="8TRutvtICGxCqHpXNAIt-125">
          <mxGeometry relative="1" as="geometry" />
        </mxCell>
        <mxCell id="8TRutvtICGxCqHpXNAIt-98" value="Perfil" style="whiteSpace=wrap;html=1;align=center;direction=west;" vertex="1" parent="1">
          <mxGeometry x="669" y="390" width="120" height="40" as="geometry" />
        </mxCell>
        <mxCell id="8TRutvtICGxCqHpXNAIt-99" value="User_Id" style="ellipse;whiteSpace=wrap;html=1;align=center;fontStyle=0;direction=west;" vertex="1" parent="1">
          <mxGeometry x="561.67" y="440" width="100" height="40" as="geometry" />
        </mxCell>
        <mxCell id="8TRutvtICGxCqHpXNAIt-100" value="Nome" style="ellipse;whiteSpace=wrap;html=1;align=center;direction=west;" vertex="1" parent="1">
          <mxGeometry x="569" y="490" width="100" height="40" as="geometry" />
        </mxCell>
        <mxCell id="8TRutvtICGxCqHpXNAIt-101" value="Gêneros_Músicais" style="ellipse;whiteSpace=wrap;html=1;align=center;direction=west;" vertex="1" parent="1">
          <mxGeometry x="787" y="490" width="100" height="40" as="geometry" />
        </mxCell>
        <mxCell id="8TRutvtICGxCqHpXNAIt-102" value="Data_Nascimento" style="ellipse;whiteSpace=wrap;html=1;align=center;direction=west;" vertex="1" parent="1">
          <mxGeometry x="679" y="690" width="100" height="40" as="geometry" />
        </mxCell>
        <mxCell id="8TRutvtICGxCqHpXNAIt-103" value="1" style="resizable=0;html=1;align=right;verticalAlign=bottom;" connectable="0" vertex="1" parent="1">
          <mxGeometry x="661.666666666667" y="410" as="geometry" />
        </mxCell>
        <mxCell id="8TRutvtICGxCqHpXNAIt-111" style="edgeStyle=none;shape=connector;rounded=0;orthogonalLoop=1;jettySize=auto;html=1;exitX=1;exitY=0.5;exitDx=0;exitDy=0;entryX=1;entryY=0.5;entryDx=0;entryDy=0;labelBackgroundColor=default;strokeColor=default;fontFamily=Helvetica;fontSize=11;fontColor=default;endArrow=none;endFill=0;" edge="1" parent="1" source="8TRutvtICGxCqHpXNAIt-104" target="8TRutvtICGxCqHpXNAIt-30">
          <mxGeometry relative="1" as="geometry" />
        </mxCell>
        <mxCell id="8TRutvtICGxCqHpXNAIt-104" value="possui" style="shape=rhombus;perimeter=rhombusPerimeter;whiteSpace=wrap;html=1;align=center;" vertex="1" parent="1">
          <mxGeometry x="912" y="385" width="100" height="50" as="geometry" />
        </mxCell>
        <mxCell id="8TRutvtICGxCqHpXNAIt-107" value="Instrumentos_M" style="ellipse;whiteSpace=wrap;html=1;align=center;direction=west;" vertex="1" parent="1">
          <mxGeometry x="797" y="440" width="100" height="40" as="geometry" />
        </mxCell>
        <mxCell id="8TRutvtICGxCqHpXNAIt-117" value="1" style="text;whiteSpace=wrap;html=1;fontSize=11;fontFamily=Helvetica;fontColor=default;" vertex="1" parent="1">
          <mxGeometry x="797" y="390" width="40" height="40" as="geometry" />
        </mxCell>
        <mxCell id="8TRutvtICGxCqHpXNAIt-118" value="N" style="text;whiteSpace=wrap;html=1;fontSize=11;fontFamily=Helvetica;fontColor=default;" vertex="1" parent="1">
          <mxGeometry x="1160" y="390" width="40" height="40" as="geometry" />
        </mxCell>
        <mxCell id="8TRutvtICGxCqHpXNAIt-119" value="Sobrenome" style="ellipse;whiteSpace=wrap;html=1;align=center;fontStyle=0;direction=west;" vertex="1" parent="1">
          <mxGeometry x="587" y="540" width="100" height="40" as="geometry" />
        </mxCell>
        <mxCell id="8TRutvtICGxCqHpXNAIt-120" value="Tipo de Conta" style="ellipse;whiteSpace=wrap;html=1;align=center;direction=west;" vertex="1" parent="1">
          <mxGeometry x="770" y="540" width="100" height="40" as="geometry" />
        </mxCell>
        <mxCell id="8TRutvtICGxCqHpXNAIt-121" value="sexo/gênero" style="ellipse;whiteSpace=wrap;html=1;align=center;fontStyle=0;direction=west;" vertex="1" parent="1">
          <mxGeometry x="600" y="590" width="100" height="40" as="geometry" />
        </mxCell>
        <mxCell id="8TRutvtICGxCqHpXNAIt-123" value="Nível do Perfil" style="ellipse;whiteSpace=wrap;html=1;align=center;fontStyle=0;direction=west;" vertex="1" parent="1">
          <mxGeometry x="760" y="590" width="100" height="40" as="geometry" />
        </mxCell>
        <mxCell id="8TRutvtICGxCqHpXNAIt-125" value="Qntd_Amigos" style="ellipse;whiteSpace=wrap;html=1;align=center;fontStyle=0;direction=west;" vertex="1" parent="1">
          <mxGeometry x="737" y="640" width="100" height="40" as="geometry" />
        </mxCell>
        <mxCell id="8TRutvtICGxCqHpXNAIt-126" value="avatar" style="ellipse;whiteSpace=wrap;html=1;align=center;fontStyle=0;direction=west;" vertex="1" parent="1">
          <mxGeometry x="621" y="640" width="100" height="40" as="geometry" />
        </mxCell>
        <mxCell id="8TRutvtICGxCqHpXNAIt-135" value="Descrição" style="ellipse;whiteSpace=wrap;html=1;align=center;" vertex="1" parent="1">
          <mxGeometry x="100" y="920" width="100" height="40" as="geometry" />
        </mxCell>
        <mxCell id="8TRutvtICGxCqHpXNAIt-136" value="Instrumento" style="ellipse;whiteSpace=wrap;html=1;align=center;" vertex="1" parent="1">
          <mxGeometry x="280" y="865" width="100" height="40" as="geometry" />
        </mxCell>
        <mxCell id="8TRutvtICGxCqHpXNAIt-137" value="Total_Horas" style="ellipse;whiteSpace=wrap;html=1;align=center;" vertex="1" parent="1">
          <mxGeometry x="180" y="960" width="100" height="40" as="geometry" />
        </mxCell>
        <mxCell id="8TRutvtICGxCqHpXNAIt-138" value="Valor" style="ellipse;whiteSpace=wrap;html=1;align=center;" vertex="1" parent="1">
          <mxGeometry x="260" y="920" width="100" height="40" as="geometry" />
        </mxCell>
        <mxCell id="8TRutvtICGxCqHpXNAIt-147" style="edgeStyle=none;shape=connector;rounded=0;orthogonalLoop=1;jettySize=auto;html=1;exitX=0.5;exitY=1;exitDx=0;exitDy=0;entryX=0.5;entryY=0;entryDx=0;entryDy=0;labelBackgroundColor=default;strokeColor=default;fontFamily=Helvetica;fontSize=11;fontColor=default;endArrow=none;endFill=0;" edge="1" parent="1" source="8TRutvtICGxCqHpXNAIt-154" target="8TRutvtICGxCqHpXNAIt-155">
          <mxGeometry relative="1" as="geometry" />
        </mxCell>
        <mxCell id="8TRutvtICGxCqHpXNAIt-150" style="edgeStyle=none;shape=connector;rounded=0;orthogonalLoop=1;jettySize=auto;html=1;exitX=0.5;exitY=1;exitDx=0;exitDy=0;entryX=1;entryY=0;entryDx=0;entryDy=0;labelBackgroundColor=default;strokeColor=default;fontFamily=Helvetica;fontSize=11;fontColor=default;endArrow=none;endFill=0;" edge="1" parent="1" source="8TRutvtICGxCqHpXNAIt-154" target="8TRutvtICGxCqHpXNAIt-157">
          <mxGeometry relative="1" as="geometry" />
        </mxCell>
        <mxCell id="8TRutvtICGxCqHpXNAIt-151" style="edgeStyle=none;shape=connector;rounded=0;orthogonalLoop=1;jettySize=auto;html=1;exitX=0.5;exitY=1;exitDx=0;exitDy=0;entryX=1;entryY=0;entryDx=0;entryDy=0;labelBackgroundColor=default;strokeColor=default;fontFamily=Helvetica;fontSize=11;fontColor=default;endArrow=none;endFill=0;" edge="1" parent="1" source="8TRutvtICGxCqHpXNAIt-154" target="8TRutvtICGxCqHpXNAIt-172">
          <mxGeometry relative="1" as="geometry" />
        </mxCell>
        <mxCell id="8TRutvtICGxCqHpXNAIt-152" style="edgeStyle=none;shape=connector;rounded=0;orthogonalLoop=1;jettySize=auto;html=1;exitX=0.5;exitY=1;exitDx=0;exitDy=0;entryX=0;entryY=0;entryDx=0;entryDy=0;labelBackgroundColor=default;strokeColor=default;fontFamily=Helvetica;fontSize=11;fontColor=default;endArrow=none;endFill=0;" edge="1" parent="1" source="8TRutvtICGxCqHpXNAIt-154" target="8TRutvtICGxCqHpXNAIt-173">
          <mxGeometry relative="1" as="geometry" />
        </mxCell>
        <mxCell id="8TRutvtICGxCqHpXNAIt-153" style="edgeStyle=none;shape=connector;rounded=0;orthogonalLoop=1;jettySize=auto;html=1;exitX=0.5;exitY=1;exitDx=0;exitDy=0;entryX=0;entryY=0;entryDx=0;entryDy=0;labelBackgroundColor=default;strokeColor=default;fontFamily=Helvetica;fontSize=11;fontColor=default;endArrow=none;endFill=0;" edge="1" parent="1" source="8TRutvtICGxCqHpXNAIt-154" target="8TRutvtICGxCqHpXNAIt-175">
          <mxGeometry relative="1" as="geometry" />
        </mxCell>
        <mxCell id="8TRutvtICGxCqHpXNAIt-210" style="edgeStyle=none;shape=connector;rounded=0;orthogonalLoop=1;jettySize=auto;html=1;exitX=0;exitY=0.5;exitDx=0;exitDy=0;entryX=1;entryY=0.5;entryDx=0;entryDy=0;labelBackgroundColor=default;strokeColor=default;fontFamily=Helvetica;fontSize=11;fontColor=default;endArrow=none;endFill=0;" edge="1" parent="1" source="8TRutvtICGxCqHpXNAIt-154" target="8TRutvtICGxCqHpXNAIt-176">
          <mxGeometry relative="1" as="geometry" />
        </mxCell>
        <mxCell id="8TRutvtICGxCqHpXNAIt-230" style="edgeStyle=none;shape=connector;rounded=0;orthogonalLoop=1;jettySize=auto;html=1;exitX=0.5;exitY=1;exitDx=0;exitDy=0;entryX=0;entryY=0;entryDx=0;entryDy=0;labelBackgroundColor=default;strokeColor=default;fontFamily=Helvetica;fontSize=11;fontColor=default;endArrow=none;endFill=0;" edge="1" parent="1" source="8TRutvtICGxCqHpXNAIt-154" target="8TRutvtICGxCqHpXNAIt-174">
          <mxGeometry relative="1" as="geometry" />
        </mxCell>
        <mxCell id="8TRutvtICGxCqHpXNAIt-154" value="Aulas" style="whiteSpace=wrap;html=1;align=center;" vertex="1" parent="1">
          <mxGeometry x="1170" y="765" width="120" height="40" as="geometry" />
        </mxCell>
        <mxCell id="8TRutvtICGxCqHpXNAIt-155" value="Aula_Id" style="ellipse;whiteSpace=wrap;html=1;align=center;fontStyle=4;" vertex="1" parent="1">
          <mxGeometry x="1070" y="815" width="100" height="40" as="geometry" />
        </mxCell>
        <mxCell id="8TRutvtICGxCqHpXNAIt-157" value="Aula_Name" style="ellipse;whiteSpace=wrap;html=1;align=center;" vertex="1" parent="1">
          <mxGeometry x="1080" y="865" width="100" height="40" as="geometry" />
        </mxCell>
        <mxCell id="8TRutvtICGxCqHpXNAIt-172" value="Descrição" style="ellipse;whiteSpace=wrap;html=1;align=center;" vertex="1" parent="1">
          <mxGeometry x="1120" y="920" width="100" height="40" as="geometry" />
        </mxCell>
        <mxCell id="8TRutvtICGxCqHpXNAIt-173" value="Num_Ordem" style="ellipse;whiteSpace=wrap;html=1;align=center;" vertex="1" parent="1">
          <mxGeometry x="1280" y="815" width="100" height="40" as="geometry" />
        </mxCell>
        <mxCell id="8TRutvtICGxCqHpXNAIt-174" value="Vídeo_Aula" style="ellipse;whiteSpace=wrap;html=1;align=center;" vertex="1" parent="1">
          <mxGeometry x="1240" y="920" width="100" height="40" as="geometry" />
        </mxCell>
        <mxCell id="8TRutvtICGxCqHpXNAIt-175" value="Conteúdo/Material" style="ellipse;whiteSpace=wrap;html=1;align=center;" vertex="1" parent="1">
          <mxGeometry x="1270" y="865" width="100" height="40" as="geometry" />
        </mxCell>
        <mxCell id="8TRutvtICGxCqHpXNAIt-176" value="possui" style="shape=rhombus;perimeter=rhombusPerimeter;whiteSpace=wrap;html=1;align=center;" vertex="1" parent="1">
          <mxGeometry x="927" y="760" width="100" height="50" as="geometry" />
        </mxCell>
        <mxCell id="8TRutvtICGxCqHpXNAIt-177" value="" style="endArrow=none;html=1;rounded=0;entryX=1;entryY=0.5;entryDx=0;entryDy=0;exitX=0;exitY=0.5;exitDx=0;exitDy=0;" edge="1" parent="1" source="8TRutvtICGxCqHpXNAIt-176">
          <mxGeometry relative="1" as="geometry">
            <mxPoint x="961" y="735" as="sourcePoint" />
            <mxPoint x="787" y="785" as="targetPoint" />
          </mxGeometry>
        </mxCell>
        <mxCell id="8TRutvtICGxCqHpXNAIt-178" value="1" style="resizable=0;html=1;align=right;verticalAlign=bottom;" connectable="0" vertex="1" parent="8TRutvtICGxCqHpXNAIt-177">
          <mxGeometry x="1" relative="1" as="geometry">
            <mxPoint x="20" as="offset" />
          </mxGeometry>
        </mxCell>
        <mxCell id="8TRutvtICGxCqHpXNAIt-216" value="N" style="resizable=0;html=1;align=right;verticalAlign=bottom;" connectable="0" vertex="1" parent="1">
          <mxGeometry x="1160.0028571428575" y="785" as="geometry" />
        </mxCell>
        <mxCell id="8TRutvtICGxCqHpXNAIt-235" value="N" style="resizable=0;html=1;align=right;verticalAlign=bottom;" connectable="0" vertex="1" parent="1">
          <mxGeometry x="687" y="805" as="geometry">
            <mxPoint x="-438" y="-48" as="offset" />
          </mxGeometry>
        </mxCell>
        <mxCell id="8TRutvtICGxCqHpXNAIt-236" value="1" style="resizable=0;html=1;align=right;verticalAlign=bottom;" connectable="0" vertex="1" parent="1">
          <mxGeometry x="240" y="460" as="geometry" />
        </mxCell>
      </root>
    </mxGraphModel>
  </diagram>
</mxfile>
